<?xml version="1.0" encoding="iso-8859-1"?>
<!-- Generator: Adobe Illustrator 19.0.0, SVG Export Plug-In . SVG Version: 6.00 Build 0)  -->
<svg version="1.1" id="Layer_1" xmlns="http://www.w3.org/2000/svg" xmlns:xlink="http://www.w3.org/1999/xlink" x="0px" y="0px"
	 viewBox="0 0 512.003 512.003" style="enable-background:new 0 0 512.003 512.003;" xml:space="preserve">
<g>
	<path style="fill:#3B97D3;" d="M312.737,355.964l-39.98-21.804c-10.328-5.632-16.755-16.463-16.755-28.231v-32.274
		c0,0,23.111-27.639,31.929-66.057c7.318-4.723,12.209-12.915,12.209-22.219v-35.31c0-7.768-3.452-14.716-8.828-19.571v-51.05
		c0,0,10.478-79.448-97.103-79.448C86.618,0,97.106,79.448,97.106,79.448v51.05c-5.376,4.855-8.828,11.802-8.828,19.571v35.31
		c0,9.304,4.89,17.496,12.209,22.219c8.819,38.418,31.929,66.057,31.929,66.057v32.274c0,11.767-6.435,22.599-16.764,28.231
		l-78.751,42.955c-22.749,12.412-36.899,36.246-36.899,62.164v37.411h327.265L312.737,355.964z"/>
	<path style="fill:#62ACDC;" d="M63.384,377.114l78.751-42.955c10.328-5.632,16.764-16.463,16.764-28.231v-32.274
		c0,0-23.111-27.639-31.929-66.057c-7.318-4.723-12.209-12.915-12.209-22.219v-35.31c0-7.768,3.452-14.716,8.828-19.571v-51.05
		c0,0-9.516-72.669,83.862-78.963C203.222,0.203,198.87,0,194.209,0C86.618,0,97.106,79.448,97.106,79.448v51.05
		c-5.376,4.855-8.828,11.802-8.828,19.571v35.31c0,9.304,4.89,17.496,12.209,22.219c8.819,38.418,31.929,66.057,31.929,66.057
		v32.274c0,11.767-6.435,22.599-16.764,28.231l-78.751,42.955c-22.749,12.412-36.899,36.246-36.899,62.164v37.411h26.483v-37.411
		C26.485,413.361,40.636,389.526,63.384,377.114"/>
	<path style="fill:#2C719E;" d="M325.03,377.119l-78.751-42.964c-10.328-5.632-16.764-16.463-16.764-28.231V273.66
		c0,0,23.111-27.648,31.929-66.066c7.318-4.723,12.209-12.906,12.209-22.21v-35.31c0-7.777-3.452-14.716-8.828-19.571v-51.05
		c0,0,9.516-72.669-83.862-78.972c4.228-0.282,8.58-0.477,13.241-0.477c107.591,0,97.103,79.448,97.103,79.448v51.05
		c5.376,4.855,8.828,11.802,8.828,19.571v35.31c0,9.304-4.891,17.487-12.209,22.219c-8.819,38.409-31.929,66.057-31.929,66.057
		v32.265c0,11.767,6.435,22.599,16.764,28.231l78.751,42.964c22.749,12.403,36.899,36.246,36.899,62.164v37.411H361.93v-37.411
		C361.93,413.365,347.779,389.522,325.03,377.119"/>
	<path style="fill:#E64C3C;" d="M512,406.072c0,58.5-47.431,105.931-105.931,105.931s-105.931-47.431-105.931-105.931
		s47.431-105.931,105.931-105.931S512,347.571,512,406.072"/>
	<path style="fill:#FFFFFF;" d="M459.035,414.899H353.104c-4.873,0-8.828-3.955-8.828-8.828c0-4.873,3.955-8.828,8.828-8.828
		h105.931c4.873,0,8.828,3.955,8.828,8.828C467.863,410.944,463.908,414.899,459.035,414.899"/>
	<path style="fill:#EC7063;" d="M406.069,512.003c4.493,0,8.889-0.371,13.241-0.918c-52.242-6.524-92.69-51.006-92.69-105.013
		s40.448-98.489,92.69-105.013c-4.352-0.547-8.748-0.918-13.241-0.918c-58.5,0-105.931,47.431-105.931,105.931
		S347.569,512.003,406.069,512.003"/>
	<path style="fill:#AD392D;" d="M406.069,300.141c-4.493,0-8.889,0.371-13.241,0.918c52.242,6.524,92.69,51.006,92.69,105.013
		s-40.448,98.489-92.69,105.013c4.352,0.547,8.748,0.918,13.241,0.918c58.5,0,105.931-47.431,105.931-105.931
		S464.57,300.141,406.069,300.141"/>
</g>
<g>
</g>
<g>
</g>
<g>
</g>
<g>
</g>
<g>
</g>
<g>
</g>
<g>
</g>
<g>
</g>
<g>
</g>
<g>
</g>
<g>
</g>
<g>
</g>
<g>
</g>
<g>
</g>
<g>
</g>
</svg>
